<svg xmlns="http://www.w3.org/2000/svg" viewBox="0 0 1600 500" role="img" aria-label="Stylized sail yacht on ocean horizon">
  <defs>
    <linearGradient id="sky" x1="0" y1="0" x2="0" y2="1">
      <stop offset="0%" stop-color="#7ec4ff" stop-opacity="0.65"/>
      <stop offset="100%" stop-color="#1a3f88" stop-opacity="0.35"/>
    </linearGradient>
    <linearGradient id="sea" x1="0" y1="0" x2="1" y2="0">
      <stop offset="0%" stop-color="#0f5ea7" stop-opacity="0.45"/>
      <stop offset="100%" stop-color="#0b3167" stop-opacity="0.7"/>
    </linearGradient>
  </defs>

  <rect width="1600" height="500" fill="url(#sky)"/>
  <path d="M0 340 C 140 320, 260 370, 420 350 C 610 330, 760 400, 980 360 C 1180 325, 1380 390, 1600 355 L 1600 500 L 0 500 Z" fill="url(#sea)"/>

  <g transform="translate(780 165)">
    <path d="M0 150 L210 150 L255 180 L-35 180 Z" fill="#173257"/>
    <rect x="103" y="35" width="8" height="115" fill="#d6e8ff"/>
    <path d="M110 40 L12 145 L110 145 Z" fill="#f7fbff"/>
    <path d="M118 55 L208 145 L118 145 Z" fill="#dce9ff"/>
    <path d="M-18 182 C40 206, 186 206, 245 182" fill="none" stroke="#8bbfff" stroke-width="6" stroke-linecap="round"/>
  </g>
</svg>
